#tb 0: 1/12
#media_type 0: video
#codec_id 0: rawvideo
#dimensions 0: 580x174
#sar 0: 1/2
0,          0,          0,        1,   302760, 0xf24dfa37
0,          1,          1,        1,   302760, 0xcedcbb6c
0,          2,          2,        1,   302760, 0xc87716a2
0,          3,          3,        1,   302760, 0x7e378e5a
0,          4,          4,        1,   302760, 0xd4a19734
0,          5,          5,        1,   302760, 0x26e93266
